<svg width="500" height="120" viewBox="0 0 500 120" fill="none" xmlns="http://www.w3.org/2000/svg">
<path d="M59.838 68.9314C68.2269 73.5659 72.4214 80.8299 72.4214 90.7231C72.4214 99.1901 69.2532 106.053 62.9169 111.311C56.6698 116.481 47.9685 119.065 36.8131 119.065C26.9962 119.065 19.0535 117.105 12.985 113.183C6.91632 109.262 2.58803 104.048 0 97.5413L22.6233 84.3059C25.3898 90.5447 30.1198 93.6643 36.8131 93.6643C42.7032 93.6643 45.6482 91.5252 45.6482 87.2471C45.6482 83.5928 43.4171 81.5874 38.955 81.231L24.7652 81.0973V58.3698L35.876 58.2361C40.5166 57.9687 42.8371 55.9633 42.8371 52.22C42.8371 48.1201 40.115 46.0702 34.6712 46.0702C28.8703 46.0702 24.9436 48.8331 22.8911 54.359L0.66933 41.391C3.34665 34.9738 7.85338 30.0272 14.1898 26.5513C20.5261 22.9861 27.5764 21.2036 35.3406 21.2036C45.5144 21.2036 53.7694 23.8328 60.1058 29.0914C66.442 34.2607 69.6102 41.1236 69.6102 49.6798C69.6102 58.1469 66.3527 64.5641 59.838 68.9314Z" fill="white"/>
<path d="M132.471 52.2202H152.417V119.065H128.321V90.3222L105.43 119.065H85.4844V52.2202H109.58V80.9638L132.471 52.2202Z" fill="white"/>
<path d="M192.334 5.46726L218.542 0L227.137 41.092L196.998 47.3795L210.848 113.598L184.64 119.065L165.479 27.4586L195.618 21.1712L192.334 5.46726Z" fill="white"/>
<path d="M302.709 66.6932C311.472 71.5347 315.854 79.1229 315.854 89.4577C315.854 98.3028 312.544 105.472 305.925 110.965C299.399 116.365 290.309 119.066 278.656 119.066C268.401 119.066 260.103 117.017 253.764 112.921C247.424 108.824 242.903 103.377 240.199 96.5804L263.833 82.7541C266.723 89.2715 271.664 92.5302 278.656 92.5302C284.809 92.5302 287.885 90.2957 287.885 85.8266C287.885 82.0092 285.555 79.9143 280.893 79.5419L266.07 79.4022V55.6601L277.677 55.5204C282.525 55.2411 284.949 53.1462 284.949 49.2358C284.949 44.9529 282.105 42.8114 276.418 42.8114C270.358 42.8114 266.256 45.6977 264.112 51.4703L240.898 37.9233C243.695 31.2197 248.403 26.0523 255.022 22.4211C261.642 18.6969 269.007 16.8347 277.118 16.8347C287.745 16.8347 296.369 19.5814 302.988 25.0746C309.607 30.4748 312.917 37.644 312.917 46.5822C312.917 55.4273 309.514 62.131 302.709 66.6932Z" fill="white"/>
<path d="M379.678 47.2804H405.549V117.11H379.678V110.826C375.203 116.319 368.957 119.065 360.939 119.065C351.524 119.065 343.832 115.574 337.866 108.591C331.899 101.608 328.916 92.8095 328.916 82.1953C328.916 71.5812 331.899 62.7826 337.866 55.7997C343.832 48.8167 351.524 45.3252 360.939 45.3252C368.957 45.3252 375.203 48.0718 379.678 53.5651V47.2804ZM358.143 91.5525C360.474 94.0664 363.503 95.3233 367.232 95.3233C370.961 95.3233 373.945 94.0664 376.182 91.5525C378.513 89.0387 379.678 85.9196 379.678 82.1953C379.678 78.4711 378.513 75.352 376.182 72.8381C373.945 70.3243 370.961 69.0673 367.232 69.0673C363.503 69.0673 360.474 70.3243 358.143 72.8381C355.906 75.352 354.787 78.4711 354.787 82.1953C354.787 85.9196 355.906 89.0387 358.143 91.5525Z" fill="white"/>
<path d="M472.171 7.47388L499.619 12.8311L491.198 55.8701L459.632 49.7096L446.06 119.066L418.611 113.708L437.386 17.7621L468.952 23.9227L472.171 7.47388Z" fill="white"/>
</svg>
