<svg width="167" height="40" viewBox="0 0 167 40" fill="none" xmlns="http://www.w3.org/2000/svg">
  <path d="M19.946 22.9771C22.7423 24.522 24.1405 26.9433 24.1405 30.241C24.1405 33.0634 23.0844 35.351 20.9723 37.1037C18.8899 38.8269 15.9895 39.6884 12.271 39.6884C8.99873 39.6884 6.35118 39.035 4.32833 37.7276C2.30544 36.4205 0.862678 34.6825 0 32.5138L7.54111 28.102C8.46327 30.1816 10.0399 31.2214 12.271 31.2214C14.2344 31.2214 15.2161 30.5084 15.2161 29.0824C15.2161 27.8643 14.4724 27.1958 12.985 27.077L8.25506 27.0324V19.4566L11.9587 19.412C13.5055 19.3229 14.279 18.6544 14.279 17.4067C14.279 16.04 13.3717 15.3567 11.5571 15.3567C9.62344 15.3567 8.31454 16.2777 7.63035 18.1197L0.22311 13.797C1.11555 11.6579 2.61779 10.0091 4.72993 8.85042C6.84202 7.66204 9.19212 7.06787 11.7802 7.06787C15.1715 7.06787 17.9231 7.94426 20.0353 9.69713C22.1473 11.4202 23.2034 13.7079 23.2034 16.5599C23.2034 19.3823 22.1176 21.5214 19.946 22.9771Z" fill="white"/>
  <path d="M44.1569 17.4067H50.8056V39.6885H42.7736V30.1074L35.1433 39.6885H28.4946V17.4067H36.5266V26.9879L44.1569 17.4067Z" fill="white"/>
  <path d="M64.1113 1.82242L72.8472 0L75.7122 13.6973L65.6659 15.7932L70.2826 37.8661L61.5467 39.6885L55.1598 9.15288L65.2061 7.05707L64.1113 1.82242Z" fill="white"/>
  <path d="M100.903 22.2308C103.824 23.8447 105.285 26.3741 105.285 29.819C105.285 32.7674 104.181 35.1571 101.975 36.9882C99.7996 38.7882 96.7697 39.6883 92.8852 39.6883C89.4668 39.6883 86.7011 39.0055 84.5879 37.6399C82.4747 36.2744 80.9675 34.4588 80.0663 32.1932L87.9441 27.5844C88.9075 29.7569 90.5545 30.8432 92.8852 30.8432C94.9362 30.8432 95.9617 30.0983 95.9617 28.6086C95.9617 27.3362 95.1848 26.6379 93.631 26.5137L88.6899 26.4672V18.5531L92.5589 18.5066C94.1749 18.4135 94.9828 17.7152 94.9828 16.4117C94.9828 14.984 94.035 14.2702 92.1394 14.2702C90.1194 14.2702 88.7521 15.2323 88.0373 17.1565L80.2994 12.6409C81.2317 10.4063 82.801 8.68384 85.0074 7.47346C87.2138 6.23204 89.6688 5.61133 92.3724 5.61133C95.9151 5.61133 98.7896 6.52688 100.996 8.35797C103.202 10.158 104.306 12.5478 104.306 15.5272C104.306 18.4755 103.171 20.7101 100.903 22.2308Z" fill="white"/>
  <path d="M126.559 15.7601H135.183V39.0367H126.559V36.9419C125.068 38.7729 122.986 39.6885 120.313 39.6885C117.175 39.6885 114.611 38.5247 112.622 36.197C110.633 33.8693 109.639 30.9365 109.639 27.3984C109.639 23.8604 110.633 20.9275 112.622 18.5999C114.611 16.2722 117.175 15.1084 120.313 15.1084C122.986 15.1084 125.068 16.0239 126.559 17.855V15.7601ZM119.381 30.5175C120.158 31.3555 121.168 31.7744 122.411 31.7744C123.654 31.7744 124.648 31.3555 125.394 30.5175C126.171 29.6796 126.559 28.6399 126.559 27.3984C126.559 26.157 126.171 25.1173 125.394 24.2794C124.648 23.4414 123.654 23.0224 122.411 23.0224C121.168 23.0224 120.158 23.4414 119.381 24.2794C118.635 25.1173 118.262 26.157 118.262 27.3984C118.262 28.6399 118.635 29.6796 119.381 30.5175Z" fill="white"/>
  <path d="M157.39 2.49121L166.54 4.27694L163.733 18.6233L153.211 16.5698L148.687 39.6884L139.537 37.9027L145.795 5.92063L156.317 7.97415L157.39 2.49121Z" fill="white"/>
</svg>
