<svg xmlns="http://www.w3.org/2000/svg" width="52" height="57" viewBox="0 0 52 57" fill="none">
  <path d="M52 0H0V57H52V0Z" fill="#FF64CA"/>
  <path d="M7.4949 40.6344C7.4949 40.8885 7.8143 40.9883 8.98613 40.9883C10.2751 40.9883 10.438 40.9032 10.438 40.7447C10.438 40.5756 10.3498 40.4906 8.79947 40.4412C6.70884 40.3719 6.153 40.0223 6.153 39.2505C6.153 38.4284 6.89136 38 8.88865 38C11.0145 38 11.6834 38.2688 11.6834 39.1361C11.6834 39.2106 11.6834 39.2852 11.6782 39.3702C11.531 39.3608 11.2696 39.3555 11.0187 39.3555C10.7584 39.3555 10.4971 39.3608 10.3498 39.3702V39.2757C10.3498 39.0216 10.1725 38.9366 8.86895 38.9366C7.66808 38.9366 7.49179 39.0111 7.49179 39.1613C7.49179 39.3104 7.58512 39.3755 9.23398 39.4605C11.1877 39.5603 11.7871 39.849 11.7871 40.6859C11.7871 41.5574 11.1037 41.9763 9.00272 41.9763C6.85713 41.9763 6.125 41.613 6.125 40.8549C6.125 40.7657 6.13019 40.6701 6.1447 40.5714C6.31685 40.5914 6.57714 40.6061 6.82395 40.6061C7.07491 40.6061 7.31135 40.6008 7.49801 40.5914V40.6344H7.4949Z" fill="white"/>
  <path d="M18.2305 41.8559C18.2502 41.3225 18.2647 40.8049 18.2699 40.1875C18.2699 39.9334 18.2896 39.6593 18.3041 39.3958L18.2699 39.3863C18.1465 39.6352 18.0096 39.8945 17.8416 40.114L16.5422 41.858H15.8682L14.4122 39.8956C14.2494 39.6761 14.1073 39.4178 13.9839 39.1784L13.9497 39.1879C13.9642 39.4472 13.9839 39.7055 13.9891 39.9901C13.9943 40.6873 14.0088 41.27 14.0378 41.858H12.7188C12.7478 41.3204 12.7582 40.7765 12.7582 39.9848C12.7582 39.1679 12.7488 38.6093 12.7333 38.1211H14.7109C14.9815 38.5243 15.3849 39.1322 15.892 39.8746C16.0248 40.0636 16.1679 40.2778 16.3058 40.4972H16.3348C16.4676 40.2725 16.5951 40.0583 16.7185 39.8746C17.1904 39.1627 17.6332 38.5148 17.8997 38.1211H19.646C19.6315 38.6093 19.617 39.1669 19.617 39.9848C19.617 40.7765 19.6222 41.3204 19.6564 41.858H18.2305V41.8559Z" fill="white"/>
  <path d="M25.3458 41.855C25.3012 41.7458 25.183 41.5012 25.0213 41.1977C24.51 41.1925 23.9925 41.1925 23.5995 41.1925C23.2407 41.1925 22.7139 41.1925 22.2172 41.1977C22.0502 41.4812 21.9175 41.7206 21.8532 41.855H20.2344C20.9375 40.8691 22.3012 38.7764 22.6206 38.1191H24.6676C25.0026 38.7764 26.3652 40.8439 27.0984 41.855H25.3458ZM23.2946 39.4085C23.1277 39.6773 22.9358 39.9913 22.7481 40.3052C23.0582 40.3105 23.3682 40.3105 23.6047 40.3105C23.8608 40.3105 24.1947 40.3105 24.5297 40.3052C24.3472 39.986 24.1553 39.6679 23.9832 39.398C23.8308 39.1639 23.7229 38.9696 23.6389 38.8153L23.2946 39.4085Z" fill="white"/>
  <path d="M31.8643 40.3262C32.7251 40.4113 33.1191 40.5509 33.2767 41.1179C33.3649 41.4413 33.4437 41.7112 33.508 41.855H32.2833C32.0624 41.855 32.023 41.8057 31.8996 41.3174C31.7917 40.8785 31.6289 40.7987 30.734 40.7987H28.9731C28.9825 41.2219 29.0022 41.5862 29.0322 41.855H27.625C27.6343 41.3122 27.6447 40.7893 27.6447 39.9871C27.6447 39.1954 27.6395 38.6567 27.625 38.1191H31.2857C32.6193 38.1191 33.2436 38.473 33.2436 39.23C33.2436 39.8726 32.8298 40.2013 31.8664 40.3063V40.3262H31.8643ZM30.8553 39.8684C31.6476 39.8684 31.9328 39.734 31.9328 39.46C31.9328 39.1765 31.6528 39.0809 30.8698 39.0809C30.4955 39.0809 29.4481 39.0862 28.9513 39.1009C28.9513 39.355 28.9513 39.6091 28.9565 39.8527C29.3112 39.8684 30.063 39.8684 30.8553 39.8684Z" fill="white"/>
  <path d="M39.0239 38.1191C39.0145 38.264 39.0145 38.4824 39.0145 38.6767C39.0145 38.8657 39.0145 39.0998 39.0239 39.2594C38.3405 39.2395 37.6612 39.2395 37.0701 39.2395C37.0701 40.49 37.0753 41.5705 37.0898 41.8603C36.9083 41.8456 36.6024 41.8456 36.3961 41.8456C36.1897 41.8456 35.8993 41.8456 35.7023 41.8603C35.7168 41.5715 35.7272 40.4953 35.7272 39.2395C35.1371 39.2395 34.4579 39.2395 33.7734 39.2594C33.7786 39.0998 33.7786 38.8709 33.7786 38.6767C33.7786 38.4824 33.7786 38.2682 33.7734 38.1191H39.0239Z" fill="white"/>
  <path d="M9.24019 48.0008C6.94735 48.0008 6.00781 47.1734 6.00781 45.9533C6.00781 44.6828 7.04587 43.9258 9.24019 43.9258C11.4345 43.9258 12.4726 44.6828 12.4726 45.9533C12.4726 47.1745 11.533 48.0008 9.24019 48.0008ZM11.0902 45.9586C11.0902 45.3454 10.6132 45.0073 9.24019 45.0073C7.86718 45.0073 7.39016 45.3464 7.39016 45.9586C7.39016 46.5613 7.862 46.9204 9.24019 46.9204C10.6236 46.9204 11.0902 46.5613 11.0902 45.9586Z" fill="white"/>
  <path d="M17.5987 46.3028C18.4594 46.3878 18.8535 46.5275 19.0111 47.0945C19.0993 47.4179 19.1781 47.6877 19.2424 47.8316H18.0177C17.7968 47.8316 17.7574 47.7822 17.634 47.294C17.5261 46.8551 17.3633 46.7753 16.4684 46.7753H14.7075C14.7168 47.1984 14.7365 47.5628 14.7666 47.8316H13.3594C13.3687 47.2887 13.3791 46.7658 13.3791 45.9636C13.3791 45.1719 13.3739 44.6333 13.3594 44.0957H17.02C18.3537 44.0957 18.9779 44.4495 18.9779 45.2066C18.9779 45.8492 18.5642 46.1778 17.6008 46.2828V46.3028H17.5987ZM16.5897 45.845C17.382 45.845 17.6671 45.7106 17.6671 45.4365C17.6671 45.153 17.3872 45.0575 16.6042 45.0575C16.2298 45.0575 15.1825 45.0627 14.6857 45.0774C14.6857 45.3315 14.6857 45.5856 14.6909 45.8292C15.0456 45.845 15.7984 45.845 16.5897 45.845Z" fill="white"/>
  <path d="M24.4865 47.8335C24.4419 47.7243 24.3236 47.4797 24.1619 47.1762C23.6506 47.171 23.1331 47.171 22.7401 47.171C22.3813 47.171 21.8545 47.171 21.3578 47.1762C21.1908 47.4597 21.0581 47.6991 20.9938 47.8335H19.375C20.0781 46.8476 21.4418 44.755 21.7612 44.0977H23.8082C24.1432 44.755 25.5058 46.8224 26.239 47.8335H24.4865ZM22.4352 45.387C22.2683 45.6558 22.0764 45.9698 21.8887 46.2837C22.1988 46.289 22.5089 46.289 22.7453 46.289C23.0014 46.289 23.3354 46.289 23.6703 46.2837C23.4878 45.9645 23.296 45.6464 23.1238 45.3765C22.9714 45.1424 22.8635 44.9481 22.7795 44.7938L22.4352 45.387Z" fill="white"/>
  <path d="M32.6794 44.0977C32.6649 44.5565 32.6597 45.1687 32.6597 45.9614C32.6597 46.7835 32.6597 47.3358 32.669 47.8346H31.267C30.9766 47.5007 29.447 46.4444 28.6008 45.8469C28.3944 45.6978 28.1829 45.5477 28.0107 45.3892C28.0304 45.6884 28.0356 45.9866 28.045 46.2911C28.0501 47.0628 28.0543 47.6057 28.0698 47.8356H26.8047C26.8047 47.3327 26.8192 46.7646 26.8192 45.9677C26.8192 45.176 26.8192 44.608 26.8047 44.0998H28.409C28.5904 44.3392 30.2787 45.554 31.0316 46.0779C31.2089 46.1976 31.3862 46.2921 31.519 46.4213C31.4993 46.1472 31.4899 45.8837 31.4899 45.679C31.4899 44.987 31.4754 44.3644 31.4557 44.0998H32.6794V44.0977Z" fill="white"/>
  <path d="M36.8551 47.9518C34.7842 47.9518 33.5781 47.3491 33.5781 45.939C33.5781 44.4543 34.8329 43.9766 36.7815 43.9766C38.6408 43.9766 39.7919 44.2853 39.7919 45.4014C39.7919 45.4361 39.7919 45.476 39.7867 45.5106C39.6395 45.5001 39.3782 45.4959 39.1272 45.4959C38.8565 45.4959 38.6004 45.5012 38.448 45.5106C38.448 45.4907 38.4531 45.4707 38.4531 45.4508C38.4531 45.1022 37.9854 44.9919 36.7752 44.9919C35.4956 44.9919 34.9646 45.2565 34.9646 45.9632C34.9646 46.6057 35.4613 46.9491 36.8541 46.9491C37.8921 46.9491 38.3494 46.7895 38.4822 46.4514C37.7988 46.4514 36.8779 46.4566 36.2681 46.4713C36.2733 46.3968 36.2733 46.2372 36.2733 46.1626C36.2733 46.0282 36.2733 45.9085 36.2681 45.8141C37.0656 45.8288 37.8817 45.8246 38.477 45.8246C38.841 45.8246 39.3087 45.8298 39.7961 45.8141C39.8863 47.1591 39.5513 47.9518 36.8551 47.9518Z" fill="white"/>
  <path d="M45.9975 44.0977C45.9923 44.2069 45.9882 44.3812 45.9882 44.5366C45.9882 44.6962 45.9882 44.8757 45.9975 44.9797C44.974 44.9744 43.1239 44.9702 42.2041 44.9702V45.5435C43.2671 45.5435 45.1212 45.5435 45.9436 45.5288C45.9384 45.723 45.9343 46.122 45.9384 46.331C45.1316 46.3215 43.2567 46.311 42.2041 46.311V46.8938C43.1239 46.8938 45.0383 46.8885 45.9975 46.8843C45.9882 47.004 45.9882 47.193 45.9882 47.3673C45.9882 47.5269 45.9882 47.7107 45.9975 47.8356H40.7969C40.8166 47.3274 40.8166 46.7646 40.8166 45.9677C40.8166 45.176 40.8166 44.6027 40.7969 44.0998H45.9975V44.0977Z" fill="white"/>
  <path d="M12.3115 28.1125C12.0263 28.1125 11.7577 28.0799 11.5068 28.0127C10.6481 27.7817 10.0508 27.1507 9.77597 26.1857C7.5972 24.4889 6.303 22.0929 6.12982 19.4332C5.94004 16.5289 7.07661 13.6782 9.33005 11.406L9.47938 11.2559L9.53538 11.4606C10.4013 14.6442 14.8916 20.1577 19.5436 23.7518L19.6556 23.8379L19.5561 23.9387C16.9314 26.5868 14.2507 28.1125 12.3115 28.1125ZM9.35805 11.7305C7.25291 13.927 6.19411 16.6486 6.37455 19.4164C6.54359 22.0173 7.81601 24.3598 9.95745 26.0135L9.99063 26.0387L10.001 26.0786C10.2488 26.989 10.7767 27.5591 11.569 27.7712C11.8033 27.8342 12.0564 27.8647 12.3239 27.8647C14.1657 27.8647 16.7354 26.402 19.2823 23.861C14.7308 20.3152 10.3567 14.9581 9.35805 11.7305Z" fill="white"/>
  <path d="M11.7036 28.044C9.32781 26.2086 7.03185 23.382 6.58594 21.7419L6.82238 21.6758C7.25689 23.2718 9.51344 26.0396 11.8519 27.8466L11.7036 28.044Z" fill="white"/>
  <path d="M15.1453 27.232C11.0936 24.102 7.17993 19.2867 6.42188 16.4958L6.65831 16.4297C7.40497 19.1754 11.2793 23.9329 15.2946 27.0346L15.1453 27.232Z" fill="white"/>
  <path d="M9.83236 26.2289C8.57135 25.7028 7.77285 24.7547 7.52293 23.4842C7.06456 21.1542 8.46972 18.0704 11.2811 15.2344L11.4543 15.4097C8.70098 18.187 7.32174 21.1868 7.76351 23.4348C7.99581 24.6192 8.74453 25.5054 9.9257 25.9979L9.83236 26.2289Z" fill="white"/>
  <path d="M9.45758 26.4175C9.39121 26.4175 9.33625 26.3954 9.29581 26.3429C9.21181 26.2316 9.07078 26.0468 10.6574 24.1936C11.6727 23.0071 13.1411 21.4416 14.9019 19.666L15.0751 19.8414C11.1541 23.7967 9.63388 25.736 9.50943 26.1613C9.56129 26.1466 9.65877 26.1067 9.83195 26.0048L9.95535 26.219C9.77387 26.3251 9.59343 26.4175 9.45758 26.4175Z" fill="white"/>
  <path d="M17.001 28.5511C15.7359 28.5511 14.4821 28.3694 13.2937 28.0009C12.6373 28.1447 12.0379 28.1531 11.5173 28.0135C10.6462 27.7793 10.0447 27.1336 9.77613 26.1466L9.67969 25.7917L9.96902 26.0153C10.9749 26.7923 12.1094 27.3688 13.3124 27.7478C15.0597 27.3446 17.2385 25.9387 19.3945 23.7642L19.4702 23.6875L19.5552 23.7537C21.51 25.2635 22.912 26.0185 23.9013 26.3734C24.759 25.8505 25.5616 25.2236 26.2834 24.4949L26.4327 24.3448L26.4887 24.5495C26.8485 25.8736 26.497 26.4448 26.1382 26.6894C25.6663 27.0118 24.9052 26.9876 23.9273 26.6453C21.8149 27.9053 19.3872 28.5511 17.001 28.5511ZM13.7583 27.8801C16.9699 28.7537 20.613 28.2728 23.6276 26.5351C22.4796 26.0794 21.0661 25.2268 19.4899 24.0172C17.4895 26.0174 15.4611 27.3646 13.7583 27.8801ZM10.1329 26.4458C10.4129 27.1451 10.8982 27.5914 11.5795 27.7741C11.9476 27.8728 12.3583 27.8927 12.8053 27.8381C11.8564 27.4979 10.9563 27.0349 10.1329 26.4458ZM24.2052 26.4742C25.3594 26.8228 25.8613 26.5792 25.9992 26.4847C26.4742 26.1602 26.442 25.4389 26.302 24.8225C25.657 25.4515 24.9529 26.0027 24.2052 26.4742Z" fill="white"/>
  <path d="M14.7261 29.5518C14.0541 29.5518 12.9839 29.0226 11.7188 28.0451L11.867 27.8477C13.6673 29.2389 14.7064 29.4583 15.0496 29.2242C15.2871 29.0615 15.2363 28.6583 15.1523 28.3485L15.3888 28.2824C15.5806 28.9859 15.3846 29.2946 15.1876 29.43C15.0673 29.5119 14.9117 29.5518 14.7261 29.5518Z" fill="white"/>
  <path d="M20.2318 29.7966C19.1108 29.7966 17.3012 28.8947 15.1483 27.2326L15.2966 27.0352C17.8622 29.0165 20.0399 29.9426 20.8426 29.3924C21.2916 29.0858 21.2045 28.3561 21.0531 27.7975L21.2895 27.7313C21.6027 28.8842 21.2947 29.3829 20.9805 29.5982C20.7855 29.7315 20.5335 29.7966 20.2318 29.7966Z" fill="white"/>
  <path d="M16.3736 29.7589C16.1206 29.7589 15.8676 29.7474 15.6166 29.7232C13.2595 29.5006 11.1927 28.2438 9.79688 26.1837L9.99909 26.043C11.3534 28.0411 13.357 29.2602 15.6405 29.4754C18.3388 29.7306 21.1875 28.563 23.4575 26.2729L23.6307 26.4483C21.5183 28.5787 18.9112 29.7589 16.3736 29.7589Z" fill="white"/>
  <path d="M18.3336 29.948C18.2879 29.948 18.2423 29.948 18.1967 29.947C15.0379 29.9092 12.0596 28.5778 9.81238 26.1985L9.98971 26.0273C12.1913 28.3573 15.1074 29.6614 18.2008 29.6992C18.2454 29.6992 18.29 29.7002 18.3356 29.7002C21.2134 29.7002 23.9065 28.5799 25.9328 26.5355L26.106 26.7109C24.0309 28.8025 21.2766 29.948 18.3336 29.948Z" fill="white"/>
  <path d="M17.0093 28.5477C14.4126 28.5477 11.8636 27.7823 9.82692 26.2094L9.79374 26.1842L9.78337 26.1443C8.90086 22.8998 11.7962 16.6156 16.2388 12.1352L16.3145 12.0586L16.3995 12.1247C21.0889 15.7472 25.6176 21.3195 26.4959 24.5472L26.5146 24.6165L26.4638 24.668C23.9314 27.2216 20.4283 28.5477 17.0093 28.5477ZM10.0084 26.0382C14.6159 29.5683 21.8719 28.8974 26.2398 24.5441C25.3334 21.3699 20.924 15.9572 16.3363 12.3883C12.0109 16.7878 9.18708 22.8777 10.0084 26.0382Z" fill="white"/>
  <path d="M15.1389 28.3448C14.7044 26.7488 12.4489 23.981 10.1094 22.174L10.2577 21.9766C12.6335 23.812 14.9284 26.6385 15.3753 28.2786L15.1389 28.3448Z" fill="white"/>
  <path d="M21.0582 27.7945C20.3115 25.0488 16.4372 20.2913 12.4219 17.1896L12.5702 16.9922C16.6218 20.1222 20.5345 24.9375 21.2936 27.7284L21.0582 27.7945Z" fill="white"/>
  <path d="M12.3777 26.6774C11.4434 26.6774 10.5868 26.5314 9.85156 26.2248L9.94489 25.9959C13.4977 27.4764 19.9511 25.0845 24.3335 20.6641L24.5067 20.8394C20.9601 24.4167 16.0602 26.6774 12.3777 26.6774Z" fill="white"/>
  <path d="M9.96715 26.217L9.84375 26.0028C11.4408 25.0609 16.3261 20.6761 20.7345 16.2305L20.9077 16.4058C16.4869 20.8651 11.5797 25.2667 9.96715 26.217Z" fill="white"/>
  <path d="M10.0973 26.4366L9.80799 26.213C7.61055 24.5151 6.30391 22.1075 6.12969 19.4353C5.94199 16.553 7.05989 13.7233 9.27911 11.4584C8.95038 10.1838 9.2957 9.62935 9.64829 9.38785C10.706 8.66441 13.2229 9.68815 16.3796 12.1273L16.4916 12.2134L16.392 12.3142C12.0065 16.7389 9.13911 22.9149 9.99984 26.0817L10.0973 26.4366ZM10.5132 9.4225C10.0911 9.4225 9.87125 9.5359 9.78621 9.59365C9.2563 9.9559 9.35689 10.8095 9.53422 11.4626L9.55288 11.5319L9.50207 11.5834C7.30048 13.8052 6.1888 16.5877 6.37339 19.4185C6.53516 21.9069 7.70803 24.1602 9.68562 25.7993C9.08934 22.496 11.8872 16.5562 16.1193 12.2386C13.0549 9.88975 11.3687 9.4225 10.5132 9.4225Z" fill="white"/>
  <path d="M10.1158 22.1759C8.31556 20.7857 7.27647 20.5652 6.93322 20.7994C6.69574 20.9621 6.74656 21.3653 6.83055 21.6751L6.59411 21.7412C6.40227 21.0377 6.59826 20.729 6.7953 20.5936C7.35321 20.2124 8.64948 20.7301 10.2641 21.9785L10.1158 22.1759Z" fill="white"/>
  <path d="M12.4206 17.1954C9.85497 15.214 7.67931 14.2879 6.87458 14.8381C6.42555 15.1447 6.51266 15.8745 6.66407 16.4331L6.42763 16.4992C6.11445 15.3463 6.42244 14.8476 6.73769 14.6323C7.65753 14.0034 9.83838 14.8875 12.5699 16.998L12.4206 17.1954Z" fill="white"/>
  <path d="M9.78891 26.1842C6.64675 21.5484 7.71384 14.1218 12.1668 9.62891L12.34 9.80426C7.96584 14.2163 6.91223 21.5012 9.99113 26.0435L9.78891 26.1842Z" fill="white"/>
  <path d="M9.79546 26.2007C5.27613 21.419 5.22947 13.8675 9.68968 9.36719L9.86286 9.54254C5.49598 13.9473 5.54472 21.3434 9.97279 26.0285L9.79546 26.2007Z" fill="white"/>
  <path d="M19.4814 24.0166L19.3963 23.9505C14.7069 20.328 10.1783 14.7557 9.29992 11.528L9.28125 11.4587L9.33206 11.4073C13.7871 6.91329 21.2505 6.22134 25.9679 9.86587L26.0011 9.89107L26.0114 9.93097C26.8939 13.1755 23.9986 19.4597 19.5571 23.9389L19.4814 24.0166ZM9.55502 11.5322C10.4614 14.7063 14.8708 20.1191 19.4596 23.688C23.7839 19.2885 26.6077 13.1986 25.7854 10.0381C21.1779 6.50799 13.9229 7.17894 9.55502 11.5322Z" fill="white"/>
  <path d="M23.2234 19.0797C19.1718 15.9497 15.2591 11.1344 14.5 8.34349L14.7364 8.27734C15.4831 11.0231 19.3574 15.7806 23.3727 18.8812L23.2234 19.0797Z" fill="white"/>
  <path d="M25.5161 14.0987C23.1403 12.2633 20.8444 9.43566 20.3984 7.79662L20.6349 7.73047C21.0694 9.32646 23.3249 12.0942 25.6644 13.9013L25.5161 14.0987Z" fill="white"/>
  <path d="M11.4622 15.4106L11.2891 15.2352C15.7348 10.7507 22.3084 8.33571 25.9432 9.85086L25.8498 10.0808C22.298 8.59926 15.8436 10.9901 11.4622 15.4106Z" fill="white"/>
  <path d="M15.0638 19.8429L14.8906 19.6675C19.3104 15.2092 24.2176 10.8077 25.8301 9.85742L25.9535 10.0716C24.3555 11.0135 19.4711 15.3961 15.0638 19.8429Z" fill="white"/>
  <path d="M25.2747 26.9151C23.9826 26.9151 21.8909 25.8714 19.4011 23.9489L19.2891 23.8628L19.3886 23.762C23.7742 19.3384 26.6415 13.1623 25.7798 9.99552L25.6833 9.64062L25.9726 9.86427C28.1701 11.5621 29.4767 13.9698 29.6509 16.642C29.8386 19.5242 28.7207 22.354 26.5015 24.6177C26.8302 25.8924 26.4849 26.4468 26.1323 26.6883C25.9094 26.8406 25.6211 26.9151 25.2747 26.9151ZM19.6624 23.8366C24.2408 27.3435 25.7403 26.6558 25.9965 26.4815C26.5264 26.1192 26.4258 25.2656 26.2485 24.6125L26.2298 24.5432L26.2806 24.4917C28.4822 22.271 29.5929 19.4885 29.4083 16.6577C29.2465 14.1693 28.0736 11.916 26.096 10.2769C26.6923 13.5813 23.8945 19.52 19.6624 23.8366Z" fill="white"/>
  <path d="M28.31 21.6443C27.189 21.6443 25.3794 20.7424 23.2266 19.0802L23.3749 18.8828C25.9404 20.8642 28.1171 21.7902 28.9208 21.24C29.3699 20.9335 29.2827 20.2037 29.1313 19.6451L29.3678 19.579C29.681 20.7319 29.373 21.2306 29.0588 21.4458C28.8638 21.5781 28.6118 21.6443 28.31 21.6443Z" fill="white"/>
  <path d="M28.5386 15.6065C27.8666 15.6065 26.7964 15.0773 25.5312 14.0997L25.6795 13.9023C27.4798 15.2925 28.5189 15.513 28.8622 15.2789C29.0996 15.1161 29.0488 14.7129 28.9648 14.4032L29.2013 14.337C29.3931 15.0405 29.1971 15.3492 29.0001 15.4847C28.8787 15.5655 28.7242 15.6065 28.5386 15.6065Z" fill="white"/>
  <path d="M23.6107 26.4468L23.4375 26.2714C27.8116 21.8594 28.8652 14.5745 25.7863 10.0333L25.9886 9.89258C29.1307 14.5283 28.0647 21.9539 23.6107 26.4468Z" fill="white"/>
  <path d="M26.0888 26.7084L25.9156 26.533C30.2815 22.1283 30.2327 14.7332 25.8047 10.0481L25.982 9.87695C30.5013 14.6586 30.549 22.2091 26.0888 26.7084Z" fill="white"/>
  <path d="M26.3013 24.821L26.2453 24.6162C25.3793 21.4327 20.8891 15.9191 16.237 12.325L16.125 12.2389L16.2246 12.1381C19.235 9.10152 22.3191 7.54018 24.2728 8.06518C25.1315 8.29618 25.7299 8.92722 26.0036 9.89217C28.1824 11.589 29.4766 13.985 29.6498 16.6447C29.8385 19.5479 28.703 22.3987 26.4506 24.6708L26.3013 24.821ZM16.4973 12.2137C21.0488 15.7616 25.4239 21.1177 26.4226 24.3464C28.5277 22.1509 29.5855 19.4293 29.405 16.6615C29.235 14.0606 27.9636 11.7181 25.8222 10.0644L25.789 10.0392L25.7786 9.99927C25.5308 9.08892 25.0029 8.51877 24.2106 8.30668C22.3606 7.80793 19.4144 9.30417 16.4973 12.2137Z" fill="white"/>
  <path d="M29.1207 19.6461C28.374 16.9004 24.4997 12.1428 20.4844 9.04115L20.6327 8.84375C24.6843 11.9738 28.597 16.7891 29.3561 19.5799L29.1207 19.6461Z" fill="white"/>
  <path d="M28.967 14.4014C28.5325 12.8054 26.276 10.0376 23.9375 8.2306L24.0858 8.0332C26.4616 9.86859 28.7576 12.6952 29.2035 14.3353L28.967 14.4014Z" fill="white"/>
  <path d="M24.5013 20.844L24.3281 20.6686C27.0804 17.8924 28.4596 14.8926 28.0178 12.6445C27.7855 11.4602 27.0378 10.574 25.8556 10.0815L25.949 9.85156C27.21 10.3776 28.0085 11.3258 28.2584 12.5962C28.7168 14.9251 27.3116 18.009 24.5013 20.844Z" fill="white"/>
  <path d="M20.8919 16.4108L20.7188 16.2354C24.6387 12.2811 26.1589 10.3418 26.2834 9.91656C26.2315 9.93126 26.1341 9.97116 25.9609 10.073L25.8375 9.85881C26.1081 9.69921 26.3746 9.57426 26.497 9.73491C26.581 9.84621 26.722 10.031 25.1354 11.8843C24.1202 13.0697 22.6528 14.6352 20.8919 16.4108Z" fill="white"/>
  <path d="M16.3188 12.3875L16.2338 12.3214C14.28 10.8115 12.877 10.0565 11.8876 9.70165C11.03 10.2245 10.2274 10.8514 9.50458 11.5801L9.35525 11.7302L9.29925 11.5255C8.93941 10.2014 9.29096 9.63025 9.64976 9.3856C10.1216 9.06325 10.8828 9.0874 11.8607 9.4297C15.0889 7.50401 19.0617 7.01262 22.4922 8.07521C23.1497 7.93136 23.749 7.92296 24.2686 8.06261C25.1397 8.29676 25.7422 8.94251 26.0108 9.9295L26.1072 10.2844L25.8179 10.0607C24.812 9.28375 23.6775 8.70731 22.4746 8.32826C20.7272 8.73146 18.5484 10.1374 16.3935 12.3109L16.3188 12.3875ZM12.1593 9.541C13.3073 9.9967 14.7208 10.8493 16.297 12.0589C18.2964 10.0586 20.3248 8.71151 22.0276 8.19701C18.817 7.32341 15.174 7.80431 12.1593 9.541ZM10.5146 9.4192C10.0926 9.4192 9.87272 9.5326 9.78769 9.59035C9.31273 9.9148 9.34488 10.6361 9.48488 11.2525C10.1299 10.6235 10.8351 10.0733 11.5828 9.60085C11.1337 9.4654 10.7832 9.4192 10.5146 9.4192ZM22.9817 8.23796C23.9295 8.57816 24.8296 9.0412 25.6541 9.63025C25.3741 8.93096 24.8887 8.48471 24.2074 8.30201C23.8393 8.20331 23.4276 8.18336 22.9817 8.23796Z" fill="white"/>
  <path d="M20.4987 9.03911C17.9331 7.05778 15.7554 6.13168 14.9527 6.68188C14.5037 6.98848 14.5908 7.71822 14.7422 8.27682L14.5058 8.34297C14.1926 7.19007 14.5006 6.69133 14.8148 6.47608C15.7346 5.84713 17.9155 6.73123 20.647 8.84172L20.4987 9.03911Z" fill="white"/>
  <path d="M23.9283 8.22718C22.1281 6.83699 21.0879 6.61649 20.7457 6.85169C20.5082 7.01444 20.5591 7.41764 20.6431 7.72739L20.4066 7.79354C20.2148 7.09004 20.4108 6.78134 20.6078 6.64589C21.1647 6.2658 22.4609 6.78239 24.0766 8.03084L23.9283 8.22718Z" fill="white"/>
  <path d="M25.7868 10.0328C24.4325 8.03462 22.4289 6.81558 20.1454 6.60033C17.4461 6.34623 14.5984 7.51277 12.3294 9.80281L12.1562 9.62746C14.4781 7.28597 17.3984 6.09318 20.1682 6.35358C22.5254 6.57618 24.5922 7.83302 25.989 9.89311L25.7868 10.0328Z" fill="white"/>
  <path d="M25.8106 10.0496C23.6079 7.71965 20.6929 6.41555 17.5995 6.37775C14.6657 6.34415 11.9259 7.46555 9.86849 9.54139L9.69531 9.36604C11.7673 7.2755 14.5216 6.12891 17.4646 6.12891C17.5103 6.12891 17.5559 6.12891 17.6015 6.12996C20.7603 6.16776 23.7386 7.49915 25.9869 9.87844L25.8106 10.0496Z" fill="white"/>
  <path d="M17.8492 30.0739C17.6367 30.0739 17.4127 30.0645 17.2436 30.0519C16.9595 30.0319 16.5623 29.9899 16.0303 29.9227C15.7171 29.8828 15.3272 29.7957 15.0887 29.7337C14.6967 29.6308 14.172 29.4702 13.7821 29.3326C13.445 29.214 12.7108 28.9042 12.0741 28.5346C11.7796 28.3645 10.9977 27.9109 10.1961 27.2158C9.79268 26.8662 9.18084 26.3034 8.52545 25.456C8.30871 25.1767 8.14175 24.9321 8.14071 24.93C7.97272 24.6832 7.97272 24.6832 7.71657 24.2706C7.5185 23.9514 7.31007 23.5324 7.22088 23.3539C7.08814 23.0862 6.94815 22.7691 6.86311 22.5423C6.79985 22.3743 6.73452 22.1864 6.67126 21.9995C6.58001 21.7517 6.49912 21.4986 6.42964 21.2424C6.33527 20.8707 6.21187 20.3804 6.16105 20.0055C6.11335 19.6569 6.06046 19.259 6.03557 18.9524C6.0252 18.8306 5.99306 18.4064 6.00135 18.0746L6.00239 18.0221C6.00965 17.7165 6.01898 17.3364 6.04076 17.0435C6.06046 16.7873 6.10194 16.4345 6.14653 16.1457C6.31557 15.0663 6.5883 14.2862 6.59971 14.2537C6.6806 14.0258 6.82993 13.6006 6.95541 13.3003C7.04666 13.0819 7.19496 12.7648 7.35258 12.4529C7.58591 11.9899 7.94472 11.405 8.24441 10.9955C8.62811 10.4726 9.11862 9.88988 9.49505 9.51293C10.0654 8.94174 10.2884 8.77059 11.0309 8.20359C11.2891 8.00619 11.6541 7.7836 11.9051 7.6345C12.1343 7.498 12.4578 7.3237 12.7285 7.1914C12.9898 7.0633 13.3621 6.9016 13.6763 6.7798C13.8547 6.7105 14.0704 6.64015 14.2798 6.57295C14.3711 6.54355 14.4592 6.5152 14.5381 6.4879C14.8315 6.3892 15.2194 6.3052 15.5595 6.23485C15.7441 6.19705 15.966 6.16346 16.1807 6.13196C16.2719 6.11831 16.3591 6.10571 16.4389 6.09311C16.7656 6.04061 17.197 6.02066 17.5371 6.01016C17.8285 5.99966 18.1697 6.00281 18.4051 6.01646C18.7452 6.03641 19.2191 6.08156 19.6101 6.13196C20.1649 6.20335 20.6606 6.33565 21.1843 6.47635C21.5752 6.58135 22.0937 6.76615 22.4743 6.9352C22.8269 7.0927 23.0903 7.21555 23.278 7.3132C23.5155 7.43605 23.8328 7.6156 24.0672 7.76049C24.3109 7.91064 24.5898 8.09544 24.7775 8.23194C25.0575 8.43669 25.1519 8.50494 25.5719 8.85669C25.6175 8.89554 25.8571 9.10029 26.1713 9.40794C26.4108 9.64313 26.611 9.86468 26.7074 9.97073C26.8236 10.0999 27.0828 10.4044 27.2456 10.6186C27.509 10.963 27.5557 11.0344 27.8181 11.425C28.0151 11.72 28.3635 12.3248 28.5523 12.727C28.6974 13.0357 28.9401 13.5533 29.1382 14.1665C29.3539 14.8322 29.5022 15.4181 29.5799 15.9074C29.6588 16.403 29.7479 16.9626 29.7645 17.7659C29.7832 18.6468 29.7054 19.3419 29.6577 19.6779C29.609 20.0213 29.5188 20.6618 29.2502 21.5616C29.0884 22.1045 28.796 22.8016 28.5792 23.2909C28.4797 23.5156 28.32 23.8149 28.0908 24.2055C27.9912 24.3766 27.8595 24.574 27.733 24.7641C27.6781 24.8481 27.6241 24.9279 27.5764 25.0024C27.3981 25.2786 27.1264 25.6156 26.9314 25.8393L26.8962 25.8802C26.6618 26.149 26.3714 26.4829 26.1174 26.7139C26.0603 26.7664 25.9981 26.8231 25.9338 26.883C25.7596 27.0436 25.5626 27.2253 25.3966 27.3618C25.1675 27.5508 24.8294 27.8217 24.5535 27.9991L24.3638 28.122C24.1667 28.2501 23.9427 28.395 23.7582 28.501C23.473 28.6638 23.0996 28.857 22.83 28.9819C21.877 29.4229 21.0547 29.6371 20.9644 29.6602C20.4034 29.802 19.6692 29.929 19.2098 29.9941C18.9599 30.0298 18.6467 30.0424 18.3698 30.054C18.2786 30.0582 18.1915 30.0613 18.1106 30.0655C18.0307 30.0718 17.9405 30.0739 17.8492 30.0739ZM8.47256 24.972C8.53789 25.0623 8.62292 25.1788 8.71833 25.3017C9.36128 26.1322 9.96067 26.6835 10.3558 27.0268C11.1398 27.7072 11.9071 28.1514 12.1954 28.3183C12.8187 28.6795 13.5332 28.9819 13.863 29.0974C14.2467 29.2318 14.7641 29.3904 15.1509 29.4922C15.4558 29.572 15.8125 29.6445 16.0614 29.676C16.5882 29.7432 16.9813 29.7852 17.2613 29.8041C17.4956 29.8209 17.8389 29.8335 18.1002 29.8198C18.1821 29.8156 18.2703 29.8114 18.3615 29.8083C18.6322 29.7967 18.9402 29.7841 19.1777 29.7505C19.6308 29.6865 20.3557 29.5615 20.9074 29.4219C20.9955 29.3998 21.7982 29.1909 22.7315 28.7583C22.9959 28.6354 23.362 28.4464 23.641 28.2868C23.8204 28.185 24.0402 28.0411 24.2352 27.9151L24.426 27.7912C24.6915 27.6211 25.0212 27.3555 25.2463 27.1717C25.407 27.0405 25.6009 26.8609 25.7731 26.7024C25.8384 26.6425 25.9006 26.5848 25.9587 26.5323C26.2024 26.3107 26.4886 25.9831 26.7178 25.7185L26.753 25.6776C26.9418 25.4602 27.2052 25.1337 27.3763 24.868C27.424 24.7935 27.479 24.7116 27.535 24.6276C27.6594 24.4396 27.788 24.2454 27.8844 24.0805C28.1084 23.6983 28.264 23.4075 28.3594 23.1912C28.573 22.7082 28.8603 22.0215 29.0189 21.4913C29.2823 20.6093 29.3715 19.9814 29.4192 19.6443C29.4659 19.3157 29.5416 18.6353 29.5229 17.7722C29.5063 16.9868 29.4192 16.4355 29.3414 15.9494C29.2657 15.4716 29.1195 14.8994 28.908 14.2453C28.714 13.6478 28.4755 13.1386 28.3335 12.8351C28.1489 12.4424 27.8098 11.8534 27.62 11.5699C27.3587 11.1803 27.313 11.111 27.0538 10.7719C26.8941 10.5629 26.6421 10.2658 26.5291 10.1398C26.4347 10.0348 26.2377 9.81743 26.0033 9.58643C25.6953 9.28404 25.462 9.08559 25.4184 9.04884C25.0046 8.70234 24.9113 8.63409 24.6365 8.43354C24.454 8.30019 24.1813 8.11959 23.9427 7.97259C23.7136 7.83084 23.4025 7.6555 23.1691 7.53475C22.9856 7.4392 22.7274 7.31845 22.3789 7.16305C22.0087 6.9982 21.5047 6.81865 21.1241 6.7168C20.6087 6.5782 20.1213 6.448 19.5821 6.3787C19.1953 6.32935 18.7297 6.2842 18.3937 6.26425C18.1645 6.2506 17.8326 6.2485 17.5485 6.25795C17.2156 6.2695 16.7936 6.2884 16.4804 6.3388C16.4005 6.3514 16.3113 6.36505 16.2201 6.3787C16.0085 6.4102 15.7897 6.44275 15.6124 6.4795C15.3718 6.5299 14.9238 6.6223 14.6189 6.7252C14.5381 6.7525 14.4499 6.78085 14.3576 6.8113C14.1512 6.8785 13.9376 6.94675 13.7665 7.01395C13.4585 7.13365 13.0935 7.2922 12.8374 7.41715C12.576 7.54525 12.2514 7.7185 12.0316 7.84975C11.7848 7.99674 11.4291 8.21409 11.1812 8.40309C10.4491 8.96274 10.2282 9.13179 9.67031 9.69038C9.30217 10.06 8.81996 10.6301 8.44352 11.1446C8.15108 11.5436 7.80161 12.1159 7.57347 12.5674C7.41791 12.875 7.27273 13.1858 7.18355 13.399C7.06118 13.693 6.91289 14.113 6.83304 14.3387C6.82163 14.3702 6.55719 15.1293 6.39127 16.1856C6.34772 16.4639 6.30623 16.8167 6.28757 17.0634C6.26579 17.3501 6.2575 17.727 6.25024 18.0294L6.2492 18.0819C6.24401 18.2972 6.25646 18.6153 6.28238 18.9324C6.30935 19.2569 6.37053 19.7052 6.40683 19.9719C6.45557 20.3331 6.5769 20.8151 6.66608 21.1679C6.66712 21.1731 6.66815 21.1773 6.67023 21.1826C6.72934 21.3768 6.81126 21.6362 6.89837 21.8976C7.48014 23.4841 8.50782 24.8785 9.9026 25.9716C9.92127 25.9863 9.9389 25.9999 9.95756 26.0146L9.80927 26.212C9.31876 25.8319 8.87285 25.4182 8.47256 24.972Z" fill="white"/>
</svg>
