<svg xmlns="http://www.w3.org/2000/svg" width="64" height="64" viewBox="0 0 64 64" fill="none">
  <path fill-rule="evenodd" clip-rule="evenodd" d="M50.3049 64H4.17577L1.81092 61.1068L0 56.9863V14.1151L4.28229 3.41917L27.8668 0H60.0308L63.2543 4.60274L64 17.2822L64 0V64H63.9878V54.7068L62.4021 60.4493L50.3049 64Z" fill="#F3FF0F"/>
  <path fill-rule="evenodd" clip-rule="evenodd" d="M38.1996 14.6832L22.2626 30.3331C21.2847 31.2935 21.2847 32.8505 22.2626 33.8109L38.1996 49.4608C39.1776 50.4212 40.7632 50.4212 41.7411 49.4608C42.7191 48.5004 42.7191 46.9434 41.7411 45.983L27.575 32.072L41.7411 18.1609C42.7191 17.2006 42.7191 15.6435 41.7411 14.6832C40.7632 13.7228 39.1776 13.7228 38.1996 14.6832Z" fill="#FF64CA"/>
</svg>
