<svg width="120" height="120" viewBox="0 0 120 120" fill="none" xmlns="http://www.w3.org/2000/svg">
  <path d="M26 10.7723L49 1.00197L65 -0.00012207L78.25 3.00614L98.75 13.2775L113.25 29.812L120 48.8517V69.3945L110.25 94.4466L93.25 111.482L69.5 120L45.75 118.998L24.5 108.977L11.25 96.4508L0 69.3945L2.25 48.8517L11.25 26.5552L26 10.7723Z" fill="#FF64CA"/>
  <path d="M35 61.4999L37.5 62.9999L72.5 63.4999L57.5 78.9999L58.5 81.9999L62.5 82.9999L84 62.4999L84.5 59.9999L84 57.9999L63.5 37.4999L60 36.9999L58 37.9999L57.5 41.4999L72.5 56.4999L38 55.9999L35.5 57.9999L35 61.4999Z" fill="white"/>
</svg>
