<svg width="237" height="125" viewBox="0 0 237 125" fill="none" xmlns="http://www.w3.org/2000/svg">
  <path fill-rule="evenodd" clip-rule="evenodd" d="M73 20.75L41 38.25L10.75 68.75L0 54.25L49.25 15L110 0L164.75 8L209.75 32.5L236.5 58.5L225 67.25L206.5 44.75L166.25 20.75L182.25 50.25L176.5 93.75L139 124.5H84.25L56.25 89L55.25 44.5L73 20.75ZM159.205 26.5603L173 51.9914L168.042 89.4914L135.71 116H88.5039L64.3622 85.3966L63.5 47.0345L78.8041 26.5603L104.239 17.2931L132.476 16L159.205 26.5603Z" fill="black"/>
  <path d="M124.831 106.253L139.188 78.9693L119.88 45.6861L82.4985 49.5096L70.5448 79.7572L91.5675 109.668L124.831 106.253Z" fill="black"/>
</svg>
