<svg width="627" height="577" viewBox="0 0 627 577" fill="none" xmlns="http://www.w3.org/2000/svg">
<path d="M265.651 556.436L256.03 531.18H189.281L198.301 551.024H202.511L206.72 548.017L219.348 556.436L232.578 563.051L239.192 561.247L243.402 552.828L250.017 563.051L253.023 558.841L256.03 551.024L264.449 563.051L265.651 556.436Z" fill="#E29E6D"/>
<path d="M467.464 543.206L468.666 531.18H411.539L431.985 570.868L439.802 576.28H446.417L447.619 570.868L452.43 575.077L463.254 576.28L468.666 570.868L470.47 555.233L467.464 543.206Z" fill="#F8BB45"/>
<path d="M52.5808 461.462V2.75029L39.2891 0V500.274L48.5932 502.719V490.495L57.1004 480.104V466.047L52.5808 461.462Z" fill="#C96F37"/>
<path d="M566.315 491.76L560.704 500.295L582.056 502.171L583.812 472.75L574.883 458.406L568.736 455.918L567.86 7L560.001 8.83533V463.818L557.312 470.248V481.238L562.34 486.85L566.315 491.76Z" fill="#C96F37"/>
<path d="M614.087 501.463L6.21739 499L0 505.403V522.642L3.82609 532H627V513.284L614.087 501.463Z" fill="#F2F2F2"/>
<path d="M598.454 446.695L601.858 9.45215H591.011L588.926 446.695L585.534 448.08L580.318 461.643V469.728L585.534 475.466V494.766L583.708 516.414L581.062 532.075H573.695L580.318 542.496H588.926L593.098 531.281L596.488 502.069V475.466L601.443 472.597L603.008 463.468V453.296L598.454 446.695Z" fill="#EA8E56"/>
<path d="M19.3163 452.177V3.13576L29.1528 1.00879V452.177L36.5967 458.026V462.811L33.6723 466.267L34.7357 473.711V481.687L32.0772 485.94V491.523V503.487L29.1528 511.728V534.059L26.2285 540.174L19.3163 542.035L10.5469 532.074H15.6248L17.1895 527.413L19.3163 508.272V484.611L15.0627 475.572V466.267L13.2014 458.026L19.3163 452.177Z" fill="#EA8E56"/>
<path d="M332.762 343.757L341.782 349.169L341.18 356.385L334.566 367.811L330.958 381.04L330.356 406.898V424.938L332.762 438.769L339.376 453.802L349.599 477.856L357.417 491.687L353.207 499.504L345.991 502.511L341.18 506.72L339.978 512.734L341.18 518.146H342.383V514.538L345.991 509.727L352.004 507.321L351.403 515.74L352.004 526.564L353.207 533.179L355.612 532.578V526.564L357.417 524.76V519.348L359.221 512.132L361.025 506.72L364.031 509.727H368.241L371.247 506.72L371.849 502.511L436.192 503.112L434.989 507.923L435.591 509.727L437.996 505.517L442.807 503.112L447.016 502.511L442.205 510.93V518.146L443.408 521.152L447.016 519.348L451.225 509.727L454.232 504.315L456.036 514.538V520.551L460.245 525.362L462.05 524.76L462.651 519.95V507.321V501.308H481.292L483.698 489.883V457.41L482.495 414.114L475.88 383.446L471.07 363.601L462.05 352.176L456.637 338.345L449.421 326.318L430.78 300.461L413.942 281.819L386.281 271.597L360.423 268.59L346.592 273.401L335.768 279.414L326.147 292.042V302.265L327.951 311.285L324.343 317.298L321.938 325.717L322.539 338.345L326.147 351.575L334.566 359.993H335.768L334.566 356.385L332.762 349.771V343.757Z" fill="#F8BB45"/>
<path d="M462.646 507.322V501.309L459.038 491.086L452.423 486.275L448.815 489.282L447.612 497.099L440.998 497.701L436.187 503.113L434.984 507.924L435.586 509.728L437.991 505.518L442.802 503.113L447.011 502.512L442.2 510.93V518.146L443.403 521.153L447.011 519.349L451.221 509.728L454.227 504.316L456.031 514.538V520.552L460.241 525.362L462.045 524.761L462.646 519.95V507.322Z" fill="#7E6E6D"/>
<path d="M371.285 506.723L371.887 502.514L379.103 494.095L374.893 487.48L371.285 491.69H357.454L353.245 499.507L346.029 502.514L341.218 506.723L340.016 512.737L341.218 518.149H342.421V514.541L346.029 509.73L352.042 507.325L351.441 515.743L352.042 526.568L353.245 533.182L355.65 532.581V526.568L357.454 524.763V519.351L359.258 512.135L361.062 506.723L364.069 509.73H368.279L371.285 506.723Z" fill="#7E6E6D"/>
<path d="M332.762 349.77V343.757V340.75L337.572 338.345L341.782 334.136L347.795 325.116L345.991 319.703L347.795 310.683L335.768 302.265H326.147L327.951 311.285L324.343 317.298L321.938 325.717L322.539 338.345L326.147 351.574L334.566 359.993H335.768L334.566 356.385L332.762 349.77Z" fill="#CFA997"/>
<path d="M288.264 346.163L281.649 348.568L278.041 356.987L275.034 367.21L282.852 375.027L287.061 383.446L288.264 394.871L287.061 405.094L284.656 423.134L282.852 436.965L279.244 445.985L278.041 461.019L275.034 473.647L273.23 485.072L268.419 491.086V494.694L273.23 495.896L282.852 502.511L285.257 509.126L284.656 515.741L280.446 518.747L282.25 513.335L279.244 509.727L271.426 506.119L265.413 504.315V509.126L263.007 516.943L260.602 524.761L252.785 530.173L250.379 529.571L254.589 523.558L256.393 517.545L256.994 511.531H251.582L249.177 509.126L250.379 503.714L253.987 498.302L250.981 492.288L247.974 495.896L243.163 500.106L177.016 499.504L177.617 501.308V506.119L175.212 507.322L171.604 503.714L168.597 500.106L166.192 501.308L167.394 507.322L168.597 515.139L167.394 516.943V522.957H164.388V515.741L161.982 510.329L160.178 504.315L158.976 512.133V518.747L157.773 522.957L155.969 527.166H154.766L153.564 522.957V515.741V509.126L154.766 500.106L152.962 503.714L148.152 506.119H145.145V511.531L146.348 515.741L145.746 516.342L141.537 512.734L140.935 506.119L142.74 500.707L146.348 498.903L149.354 497.7V494.092V481.464V472.444L140.935 464.025L136.726 450.796L135.523 415.317L136.726 398.479L142.138 370.217L151.158 350.974L163.185 338.947H169.8L175.212 331.13L182.428 322.109L187.239 318.501L188.441 312.488L190.847 304.069L203.475 289.637L224.522 268.59L246.771 264.381H273.831L289.466 270.996L302.094 280.016L308.108 290.84C307.907 294.448 307.506 301.784 307.506 302.265C307.506 302.746 305.101 308.479 303.898 311.285V323.312V335.339L297.885 346.764L284.054 359.994L282.852 358.19L288.264 349.771V346.163Z" fill="#E29E6D"/>
<path d="M163.185 338.948H169.8L173.408 347.367L169.8 367.211L166.793 387.657L154.165 429.75L147.55 453.203L149.354 472.446L140.935 464.027L136.726 450.797L135.523 415.318L136.726 398.481L142.138 370.218L151.158 350.975L163.185 338.948Z" fill="#4B3434"/>
<path d="M254.076 498.302L251.07 492.289L251.671 488.079L255.88 486.275L265.502 488.079L268.508 491.086V494.694L273.319 495.897L282.941 502.512L285.346 509.126L284.745 515.741L280.535 518.748L282.339 513.336L279.333 509.728L271.515 506.12L265.502 504.316V509.126L263.096 516.944L260.691 524.761L252.874 530.173L250.468 529.572L254.678 523.558L256.482 517.545L257.083 511.532H251.671L249.266 509.126L250.468 503.714L254.076 498.302Z" fill="#7E6E6D"/>
<path d="M146.334 498.904L149.341 497.701L154.753 494.694L158.361 489.282L161.969 484.471L166.178 483.87L170.989 486.877V492.289L171.59 497.1L177.002 499.505L177.604 501.309V506.12L175.198 507.322L171.59 503.714L168.583 500.106L166.178 501.309L167.381 507.322L168.583 515.14L167.381 516.944V522.957H164.374V515.741L161.969 510.329L160.165 504.316L158.962 512.133V518.748L157.759 522.957L155.955 527.167H154.753L153.55 522.957V515.741V509.126L154.753 500.106L152.949 503.714L148.138 506.12H145.131V511.532L146.334 515.741L145.733 516.342L141.523 512.734L140.922 506.12L142.726 500.708L146.334 498.904Z" fill="#7E6E6D"/>
<path d="M288.287 349.772V346.164V341.353L282.875 336.542L281.672 327.522V316.698L288.287 313.09L291.895 311.286L293.097 305.273L297.307 302.867L301.516 305.273L303.921 311.286V323.313V335.34L297.908 346.765L284.077 359.994L282.875 358.19L288.287 349.772Z" fill="#E1C0B0"/>
<path d="M256.39 298.055H261.802L264.207 296.852L266.011 293.846L265.41 287.832L261.802 285.427H256.39L253.984 289.035V294.447L256.39 298.055Z" fill="black"/>
<path d="M362.233 305.272H367.646L370.051 304.069L371.855 301.062L371.254 295.049L367.646 292.644H362.233L359.828 296.252V301.664L362.233 305.272Z" fill="black"/>
<path d="M349.626 477.858L357.443 491.689L359.247 488.081L352.031 459.818L349.626 438.771V414.116L347.22 394.272L341.207 381.043L343.612 366.009L347.22 361.198L341.207 356.388L334.592 367.813L330.984 381.043L330.383 406.9V424.94L332.788 438.771L339.403 453.805L349.626 477.858Z" fill="#836D6E"/>
<path d="M471.075 363.601L462.055 352.176L466.865 376.831V400.884L462.055 421.931L466.865 445.383L472.879 457.41V486.876V501.308H481.298L483.703 489.882V457.41L482.5 414.114L475.885 383.445L471.075 363.601Z" fill="#836D6E"/>
<path d="M247.112 459.156L221.461 471.757L194.46 459.156L184.109 435.305L186.36 403.804L205.26 371.854L234.961 376.804L254.762 393.454L252.511 429.005L247.112 459.156Z" fill="#F9AD77"/>
<path d="M419.019 388.502H386.619L370.868 405.153L367.719 438.003L382.119 461.404L419.019 466.354L438.82 438.003V411.453L419.019 388.502Z" fill="#E6A935"/>
</svg>
