<svg width="145" height="145" viewBox="0 0 145 145" fill="none" xmlns="http://www.w3.org/2000/svg">
<path fill-rule="evenodd" clip-rule="evenodd" d="M25.1757 98.7185L31.124 77.3559L32.3136 67.8614V58.3669L21.6067 61.9273H10.8998L4.95156 55.9933L3.7619 46.4988L7.33087 39.3779L20.4171 31.0702L29.9343 26.3229V21.5757L34.6929 18.0152L52.5378 21.5757L59.6757 28.6966L63.2447 39.3779V48.8724V57.1801L59.6757 60.7405L65.624 64.301H81.0895H101.314L113.21 53.6196L125.107 48.8724H137.003L138.193 53.6196V60.7405H131.055L123.917 63.1141L113.21 70.235L116.779 78.5427L120.348 92.7845V101.092L132.245 91.5977L138.193 92.7845L141.762 95.1581L139.383 103.466L126.296 114.147L109.641 122.455L84.6585 126.015H57.2964L33.5033 122.455L16.8481 115.334L4.95156 105.839V97.5317L10.8998 91.5977L15.6585 95.1581L22.7964 99.9053L25.1757 98.7185ZM33.505 105.839L50.1601 110.586L66.8153 111.773H82.2808L98.936 109.399L113.212 104.652L109.643 98.7181L108.453 91.5973L95.367 89.2236L72.7636 88.0368H48.9705L38.2636 90.4105L34.6946 97.5313L33.505 105.839Z" fill="white"/>
</svg>
