<svg width="145" height="145" viewBox="0 0 145 145" fill="none" xmlns="http://www.w3.org/2000/svg">
<path d="M61.279 109.292L51.5091 105.617L44.1817 106.842L39.2967 111.742L36.8542 123.993L42.9604 131.343L56.394 132.568L63.7215 123.993L61.279 109.292Z" fill="white"/>
<path d="M111.372 119.958L107.055 110.43L101.01 106.099L94.1016 106.099L83.739 113.029L82.8755 122.557L91.5109 132.952L102.737 132.086L111.372 119.958Z" fill="white"/>
<path d="M3.881 20.4146L19.7571 21.6396L41.7394 94.592H116.235L123.562 84.7917L119.899 79.8915H69.8279V71.3163L128.447 70.0912L141.881 43.1404V35.1151L133.332 27.7648L34.412 26.5398C33.1907 20.8229 30.504 9.38926 29.527 9.38926H6.32348L3.881 15.5145L3.881 20.4146Z" fill="white"/>
</svg>
