<svg width="145" height="145" viewBox="0 0 145 145" fill="none" xmlns="http://www.w3.org/2000/svg">
<path fill-rule="evenodd" clip-rule="evenodd" d="M36.3464 101.454L49.9 89.2093L56.0607 72.0664L58.525 50.0256L56.0607 34.1072L47.4357 21.8623L40.0428 14.5154L31.4178 12.0664L24.025 14.5154L16.6321 19.4133L10.4714 29.2093L5.54283 42.6786L4.31069 57.3725L6.77497 74.5154L11.7035 87.9848L19.0964 95.3317L27.7214 100.23L27.7214 123.495L3.07854 124.719V132.066L141.079 130.842V125.944L128.757 123.495V114.924L137.382 113.699V106.352L131.221 105.128V85.5358V80.6378L128.757 79.4133H64.6857L60.9893 80.6378L59.7571 105.128L54.8285 106.352V113.699L62.2214 114.924L63.4535 123.495L36.3464 123.495V101.454ZM118.9 113.699L120.132 123.495L70.8462 122.27L72.0784 114.924L118.9 113.699Z" fill="white"/>
</svg>
