<svg width="145" height="144" viewBox="0 0 145 144" fill="none" xmlns="http://www.w3.org/2000/svg">
<path fill-rule="evenodd" clip-rule="evenodd" d="M74.5495 135L107.342 111.717L131.936 88.4348L134.971 77.1325L93.6791 73.3698L84.1147 56.935L81.382 58.3046L71.8177 95.2829L62.2533 93.9133L51.3226 73.3698L8.9113 77.2345L8.96535 77.4783L25.3614 98.0217L54.0545 124.043L74.5495 135ZM5.92292 63.755L3.5 52.8261L6.23267 26.8043L15.797 14.4783L29.4604 9L47.2228 10.3696L64.9851 17.2174L74.5495 26.8043L86.8465 14.4783C92.3119 12.6522 103.516 9 104.609 9H122.371L138.767 22.6957L141.5 52.8261L139.321 60.9392L96.4117 59.6742L85.481 40.5002H78.6494L69.085 81.5872H63.6197L56.788 62.4133L5.92292 63.755Z" fill="white"/>
</svg>
